<?xml version="1.0" encoding="UTF-8"?>
<svg xmlns="http://www.w3.org/2000/svg" xmlns:xlink="http://www.w3.org/1999/xlink" width="16px" height="16px" viewBox="0 0 16 16" version="1.1">
<g id="surface1">
<path style=" stroke:none;fill-rule:nonzero;fill:rgb(0.392157%,0%,0.784314%);fill-opacity:1;" d="M 8.414062 15.992188 C 3.773438 15.992188 0 12.214844 0 7.578125 C 0 4.363281 1.789062 1.476562 4.667969 0.0429688 C 4.796875 -0.0195312 4.953125 0.00390625 5.054688 0.105469 C 5.15625 0.210938 5.183594 0.363281 5.121094 0.492188 C 4.59375 1.5625 4.328125 2.710938 4.328125 3.90625 C 4.328125 8.171875 7.800781 11.644531 12.066406 11.644531 C 13.277344 11.644531 14.433594 11.371094 15.511719 10.835938 C 15.644531 10.769531 15.796875 10.796875 15.902344 10.898438 C 16.003906 11 16.027344 11.15625 15.964844 11.285156 C 14.539062 14.1875 11.644531 15.992188 8.414062 15.992188 Z M 4.121094 1.136719 C 1.972656 2.5625 0.671875 4.949219 0.671875 7.578125 C 0.671875 11.84375 4.144531 15.316406 8.414062 15.316406 C 11.054688 15.316406 13.457031 14.003906 14.878906 11.835938 C 13.980469 12.15625 13.039062 12.316406 12.070312 12.316406 C 7.429688 12.316406 3.65625 8.542969 3.65625 3.90625 C 3.65625 2.949219 3.8125 2.019531 4.121094 1.136719 Z M 4.121094 1.136719 "/>
</g>
</svg>
