<svg width="16" height="16" viewBox="0 0 16 16" fill="none" xmlns="http://www.w3.org/2000/svg">
<path d="M8 2.90909C7.79394 2.90909 7.62133 2.83927 7.48218 2.69964C7.34255 2.56048 7.27273 2.38788 7.27273 2.18182V0.727273C7.27273 0.521212 7.34255 0.348364 7.48218 0.208727C7.62133 0.0695757 7.79394 0 8 0C8.20606 0 8.37891 0.0695757 8.51855 0.208727C8.6577 0.348364 8.72727 0.521212 8.72727 0.727273V2.18182C8.72727 2.38788 8.6577 2.56048 8.51855 2.69964C8.37891 2.83927 8.20606 2.90909 8 2.90909ZM11.6 4.4C11.4667 4.26667 11.4 4.09988 11.4 3.89964C11.4 3.69988 11.4667 3.52727 11.6 3.38182L12.6182 2.34545C12.7636 2.2 12.9362 2.12727 13.136 2.12727C13.3362 2.12727 13.5091 2.2 13.6545 2.34545C13.7879 2.47879 13.8545 2.64849 13.8545 2.85455C13.8545 3.06061 13.7879 3.2303 13.6545 3.36364L12.6182 4.4C12.4848 4.53333 12.3152 4.6 12.1091 4.6C11.903 4.6 11.7333 4.53333 11.6 4.4ZM13.8182 8.72727C13.6121 8.72727 13.4395 8.65745 13.3004 8.51782C13.1607 8.37867 13.0909 8.20606 13.0909 8C13.0909 7.79394 13.1607 7.62109 13.3004 7.48145C13.4395 7.3423 13.6121 7.27273 13.8182 7.27273H15.2727C15.4788 7.27273 15.6514 7.3423 15.7905 7.48145C15.9302 7.62109 16 7.79394 16 8C16 8.20606 15.9302 8.37867 15.7905 8.51782C15.6514 8.65745 15.4788 8.72727 15.2727 8.72727H13.8182ZM8 16C7.79394 16 7.62133 15.9302 7.48218 15.7905C7.34255 15.6514 7.27273 15.4788 7.27273 15.2727V13.8182C7.27273 13.6121 7.34255 13.4395 7.48218 13.3004C7.62133 13.1607 7.79394 13.0909 8 13.0909C8.20606 13.0909 8.37891 13.1607 8.51855 13.3004C8.6577 13.4395 8.72727 13.6121 8.72727 13.8182V15.2727C8.72727 15.4788 8.6577 15.6514 8.51855 15.7905C8.37891 15.9302 8.20606 16 8 16ZM3.38182 4.4L2.34545 3.38182C2.2 3.23636 2.12727 3.06061 2.12727 2.85455C2.12727 2.64849 2.2 2.47879 2.34545 2.34545C2.47879 2.21212 2.64849 2.14545 2.85455 2.14545C3.06061 2.14545 3.2303 2.21212 3.36364 2.34545L4.4 3.38182C4.53333 3.51515 4.6 3.68485 4.6 3.89091C4.6 4.09697 4.53333 4.26667 4.4 4.4C4.25455 4.53333 4.08485 4.6 3.89091 4.6C3.69697 4.6 3.52727 4.53333 3.38182 4.4ZM12.6182 13.6545L11.6 12.6182C11.4667 12.4727 11.4 12.3001 11.4 12.1004C11.4 11.9001 11.4667 11.7333 11.6 11.6C11.7333 11.4667 11.9001 11.4 12.1004 11.4C12.3001 11.4 12.4727 11.4667 12.6182 11.6L13.6545 12.6182C13.8 12.7515 13.8696 12.9212 13.8633 13.1273C13.8575 13.3333 13.7879 13.5091 13.6545 13.6545C13.5091 13.8 13.3333 13.8727 13.1273 13.8727C12.9212 13.8727 12.7515 13.8 12.6182 13.6545ZM0.727273 8.72727C0.521212 8.72727 0.348606 8.65745 0.209455 8.51782C0.0698182 8.37867 0 8.20606 0 8C0 7.79394 0.0698182 7.62109 0.209455 7.48145C0.348606 7.3423 0.521212 7.27273 0.727273 7.27273H2.18182C2.38788 7.27273 2.56073 7.3423 2.70036 7.48145C2.83952 7.62109 2.90909 7.79394 2.90909 8C2.90909 8.20606 2.83952 8.37867 2.70036 8.51782C2.56073 8.65745 2.38788 8.72727 2.18182 8.72727H0.727273ZM2.34545 13.6545C2.21212 13.5212 2.14545 13.3515 2.14545 13.1455C2.14545 12.9394 2.21212 12.7697 2.34545 12.6364L3.38182 11.6C3.51515 11.4667 3.68194 11.4 3.88218 11.4C4.08194 11.4 4.25455 11.4667 4.4 11.6C4.54545 11.7455 4.61818 11.9183 4.61818 12.1185C4.61818 12.3183 4.54545 12.4909 4.4 12.6364L3.38182 13.6545C3.23636 13.8 3.06061 13.8727 2.85455 13.8727C2.64849 13.8727 2.47879 13.8 2.34545 13.6545ZM8 12.3636C6.78788 12.3636 5.75758 11.9394 4.90909 11.0909C4.06061 10.2424 3.63636 9.21212 3.63636 8C3.63636 6.78788 4.06061 5.75758 4.90909 4.90909C5.75758 4.06061 6.78788 3.63636 8 3.63636C9.21212 3.63636 10.2424 4.06061 11.0909 4.90909C11.9394 5.75758 12.3636 6.78788 12.3636 8C12.3636 9.21212 11.9394 10.2424 11.0909 11.0909C10.2424 11.9394 9.21212 12.3636 8 12.3636ZM8 10.9091C8.8 10.9091 9.48485 10.6242 10.0545 10.0545C10.6242 9.48485 10.9091 8.8 10.9091 8C10.9091 7.2 10.6242 6.51515 10.0545 5.94546C9.48485 5.37576 8.8 5.09091 8 5.09091C7.2 5.09091 6.51515 5.37576 5.94546 5.94546C5.37576 6.51515 5.09091 7.2 5.09091 8C5.09091 8.8 5.37576 9.48485 5.94546 10.0545C6.51515 10.6242 7.2 10.9091 8 10.9091Z" fill="#6B7280"/>
</svg>
