<svg width="495" height="382" viewBox="0 0 495 382" fill="none" xmlns="http://www.w3.org/2000/svg">
<g filter="url(#filter0_bd_111_4617)">
<rect x="151" y="92" width="213" height="100" rx="8" fill="url(#paint0_linear_111_4617)"/>
<rect x="151" y="92" width="213" height="100" rx="8" stroke="url(#paint1_linear_111_4617)"/>
</g>
<path d="M215.664 137.384C214.043 137.384 212.603 137.043 211.344 136.36C210.107 135.656 209.136 134.717 208.432 133.544C207.728 132.349 207.376 130.995 207.376 129.48C207.376 128.712 207.451 127.944 207.6 127.176C207.771 126.408 208.069 125.587 208.496 124.712C208.944 123.837 209.584 122.867 210.416 121.8L217.072 113.16H222.256L214.16 123.56L213.456 122.792C213.755 122.557 214.064 122.376 214.384 122.248C214.704 122.099 215.024 121.992 215.344 121.928C215.685 121.864 216.037 121.832 216.4 121.832C217.851 121.832 219.141 122.163 220.272 122.824C221.403 123.485 222.288 124.392 222.928 125.544C223.589 126.675 223.92 127.955 223.92 129.384C223.92 130.92 223.568 132.296 222.864 133.512C222.16 134.707 221.179 135.656 219.92 136.36C218.683 137.043 217.264 137.384 215.664 137.384ZM215.664 133.448C216.389 133.448 217.04 133.288 217.616 132.968C218.213 132.627 218.683 132.147 219.024 131.528C219.387 130.909 219.568 130.216 219.568 129.448C219.568 128.637 219.387 127.944 219.024 127.368C218.683 126.771 218.224 126.301 217.648 125.96C217.072 125.619 216.411 125.448 215.664 125.448C214.939 125.448 214.277 125.619 213.68 125.96C213.083 126.301 212.603 126.771 212.24 127.368C211.899 127.944 211.728 128.637 211.728 129.448C211.728 130.216 211.899 130.909 212.24 131.528C212.603 132.147 213.083 132.627 213.68 132.968C214.277 133.288 214.939 133.448 215.664 133.448ZM226.722 137V133.704L233.186 126.952C234.466 125.608 235.447 124.541 236.13 123.752C236.834 122.941 237.325 122.248 237.602 121.672C237.879 121.096 238.018 120.509 238.018 119.912C238.018 118.909 237.698 118.12 237.058 117.544C236.439 116.968 235.639 116.68 234.658 116.68C233.634 116.68 232.749 116.979 232.002 117.576C231.255 118.152 230.711 119.005 230.37 120.136L226.562 118.952C226.818 117.693 227.341 116.605 228.13 115.688C228.919 114.749 229.879 114.035 231.01 113.544C232.162 113.032 233.378 112.776 234.658 112.776C236.194 112.776 237.538 113.053 238.69 113.608C239.863 114.163 240.77 114.941 241.41 115.944C242.071 116.947 242.402 118.12 242.402 119.464C242.402 120.317 242.242 121.16 241.922 121.992C241.602 122.824 241.122 123.677 240.482 124.552C239.842 125.405 239.01 126.365 237.986 127.432L232.386 133.32H242.722V137H226.722ZM247.64 141.992V139.912C248.344 139.741 248.909 139.411 249.336 138.92C249.784 138.451 250.061 137.811 250.168 137H248.28V132.52H252.504V135.272C252.504 137.149 252.088 138.653 251.256 139.784C250.445 140.915 249.24 141.651 247.64 141.992ZM267.109 137.384C265.211 137.384 263.547 136.872 262.117 135.848C260.688 134.824 259.568 133.384 258.757 131.528C257.968 129.672 257.573 127.517 257.573 125.064C257.573 122.589 257.968 120.435 258.757 118.6C259.547 116.765 260.656 115.336 262.085 114.312C263.515 113.288 265.179 112.776 267.077 112.776C269.019 112.776 270.693 113.288 272.101 114.312C273.531 115.336 274.651 116.776 275.461 118.632C276.272 120.467 276.677 122.611 276.677 125.064C276.677 127.517 276.272 129.672 275.461 131.528C274.672 133.363 273.563 134.803 272.133 135.848C270.704 136.872 269.029 137.384 267.109 137.384ZM267.141 133.416C268.229 133.416 269.157 133.085 269.925 132.424C270.693 131.741 271.28 130.781 271.685 129.544C272.112 128.285 272.325 126.792 272.325 125.064C272.325 123.336 272.112 121.853 271.685 120.616C271.28 119.357 270.683 118.397 269.893 117.736C269.125 117.075 268.187 116.744 267.077 116.744C266.011 116.744 265.093 117.075 264.325 117.736C263.557 118.397 262.96 119.357 262.533 120.616C262.128 121.853 261.925 123.336 261.925 125.064C261.925 126.771 262.128 128.253 262.533 129.512C262.96 130.749 263.557 131.709 264.325 132.392C265.115 133.075 266.053 133.416 267.141 133.416ZM283.974 137V116.872H279.366V113.16H288.326V137H283.974ZM300.695 137.384C299.074 137.384 297.634 137.043 296.375 136.36C295.138 135.656 294.167 134.717 293.463 133.544C292.759 132.349 292.407 130.995 292.407 129.48C292.407 128.712 292.482 127.944 292.631 127.176C292.802 126.408 293.101 125.587 293.527 124.712C293.975 123.837 294.615 122.867 295.447 121.8L302.103 113.16H307.287L299.191 123.56L298.487 122.792C298.786 122.557 299.095 122.376 299.415 122.248C299.735 122.099 300.055 121.992 300.375 121.928C300.717 121.864 301.069 121.832 301.431 121.832C302.882 121.832 304.173 122.163 305.303 122.824C306.434 123.485 307.319 124.392 307.959 125.544C308.621 126.675 308.951 127.955 308.951 129.384C308.951 130.92 308.599 132.296 307.895 133.512C307.191 134.707 306.21 135.656 304.951 136.36C303.714 137.043 302.295 137.384 300.695 137.384ZM300.695 133.448C301.421 133.448 302.071 133.288 302.647 132.968C303.245 132.627 303.714 132.147 304.055 131.528C304.418 130.909 304.599 130.216 304.599 129.448C304.599 128.637 304.418 127.944 304.055 127.368C303.714 126.771 303.255 126.301 302.679 125.96C302.103 125.619 301.442 125.448 300.695 125.448C299.97 125.448 299.309 125.619 298.711 125.96C298.114 126.301 297.634 126.771 297.271 127.368C296.93 127.944 296.759 128.637 296.759 129.448C296.759 130.216 296.93 130.909 297.271 131.528C297.634 132.147 298.114 132.627 298.711 132.968C299.309 133.288 299.97 133.448 300.695 133.448Z" fill="#202020"/>
<path d="M229.424 177.192C228.667 177.192 227.973 177.053 227.344 176.776C226.715 176.488 226.181 176.099 225.744 175.608C225.307 175.117 224.992 174.568 224.8 173.96L226.16 173.4C226.448 174.168 226.875 174.76 227.44 175.176C228.016 175.581 228.688 175.784 229.456 175.784C229.925 175.784 230.336 175.709 230.688 175.56C231.04 175.411 231.312 175.203 231.504 174.936C231.707 174.659 231.808 174.339 231.808 173.976C231.808 173.475 231.664 173.08 231.376 172.792C231.099 172.493 230.688 172.269 230.144 172.12L227.952 171.448C227.088 171.181 226.427 170.76 225.968 170.184C225.509 169.608 225.28 168.947 225.28 168.2C225.28 167.549 225.435 166.979 225.744 166.488C226.064 165.987 226.501 165.597 227.056 165.32C227.621 165.032 228.261 164.888 228.976 164.888C229.691 164.888 230.336 165.016 230.912 165.272C231.499 165.528 231.995 165.875 232.4 166.312C232.805 166.739 233.104 167.229 233.296 167.784L231.952 168.344C231.696 167.672 231.312 167.165 230.8 166.824C230.288 166.472 229.685 166.296 228.992 166.296C228.565 166.296 228.187 166.371 227.856 166.52C227.536 166.659 227.285 166.867 227.104 167.144C226.933 167.411 226.848 167.731 226.848 168.104C226.848 168.541 226.987 168.931 227.264 169.272C227.541 169.613 227.963 169.875 228.528 170.056L230.528 170.648C231.467 170.936 232.176 171.347 232.656 171.88C233.136 172.413 233.376 173.075 233.376 173.864C233.376 174.515 233.205 175.091 232.864 175.592C232.533 176.093 232.069 176.488 231.472 176.776C230.885 177.053 230.203 177.192 229.424 177.192ZM239.464 177.192C238.632 177.192 237.89 176.995 237.24 176.6C236.589 176.205 236.077 175.667 235.704 174.984C235.33 174.291 235.144 173.517 235.144 172.664C235.144 171.8 235.325 171.032 235.688 170.36C236.061 169.688 236.562 169.16 237.192 168.776C237.832 168.381 238.546 168.184 239.336 168.184C239.976 168.184 240.541 168.301 241.032 168.536C241.533 168.76 241.954 169.069 242.296 169.464C242.648 169.848 242.914 170.291 243.096 170.792C243.288 171.283 243.384 171.795 243.384 172.328C243.384 172.445 243.373 172.579 243.352 172.728C243.341 172.867 243.325 173 243.304 173.128H236.232V171.848H242.44L241.736 172.424C241.832 171.869 241.778 171.373 241.576 170.936C241.373 170.499 241.074 170.152 240.68 169.896C240.285 169.64 239.837 169.512 239.336 169.512C238.834 169.512 238.376 169.64 237.96 169.896C237.544 170.152 237.218 170.52 236.984 171C236.76 171.469 236.669 172.029 236.712 172.68C236.669 173.309 236.765 173.864 237 174.344C237.245 174.813 237.586 175.181 238.024 175.448C238.472 175.704 238.957 175.832 239.48 175.832C240.056 175.832 240.541 175.699 240.936 175.432C241.33 175.165 241.65 174.824 241.896 174.408L243.144 175.048C242.973 175.443 242.706 175.805 242.344 176.136C241.992 176.456 241.57 176.712 241.08 176.904C240.6 177.096 240.061 177.192 239.464 177.192ZM248.412 177.192C247.548 177.192 246.796 176.979 246.156 176.552C245.516 176.125 245.063 175.549 244.796 174.824L245.98 174.248C246.225 174.76 246.561 175.165 246.988 175.464C247.415 175.763 247.889 175.912 248.412 175.912C248.881 175.912 249.271 175.8 249.58 175.576C249.889 175.352 250.044 175.059 250.044 174.696C250.044 174.44 249.969 174.237 249.82 174.088C249.681 173.928 249.511 173.805 249.308 173.72C249.105 173.624 248.919 173.555 248.748 173.512L247.452 173.144C246.673 172.92 246.103 172.6 245.74 172.184C245.388 171.768 245.212 171.283 245.212 170.728C245.212 170.216 245.34 169.773 245.596 169.4C245.863 169.016 246.22 168.717 246.668 168.504C247.127 168.291 247.639 168.184 248.204 168.184C248.961 168.184 249.639 168.376 250.236 168.76C250.844 169.144 251.276 169.683 251.532 170.376L250.316 170.936C250.124 170.488 249.836 170.136 249.452 169.88C249.068 169.613 248.636 169.48 248.156 169.48C247.719 169.48 247.372 169.592 247.116 169.816C246.86 170.029 246.732 170.301 246.732 170.632C246.732 170.877 246.796 171.08 246.924 171.24C247.052 171.389 247.207 171.507 247.388 171.592C247.569 171.667 247.745 171.731 247.916 171.784L249.324 172.2C250.028 172.403 250.572 172.717 250.956 173.144C251.351 173.571 251.548 174.083 251.548 174.68C251.548 175.16 251.415 175.592 251.148 175.976C250.881 176.36 250.513 176.659 250.044 176.872C249.575 177.085 249.031 177.192 248.412 177.192ZM256.584 177.192C255.72 177.192 254.968 176.979 254.328 176.552C253.688 176.125 253.234 175.549 252.968 174.824L254.152 174.248C254.397 174.76 254.733 175.165 255.16 175.464C255.586 175.763 256.061 175.912 256.584 175.912C257.053 175.912 257.442 175.8 257.752 175.576C258.061 175.352 258.216 175.059 258.216 174.696C258.216 174.44 258.141 174.237 257.992 174.088C257.853 173.928 257.682 173.805 257.48 173.72C257.277 173.624 257.09 173.555 256.92 173.512L255.624 173.144C254.845 172.92 254.274 172.6 253.912 172.184C253.56 171.768 253.384 171.283 253.384 170.728C253.384 170.216 253.512 169.773 253.768 169.4C254.034 169.016 254.392 168.717 254.84 168.504C255.298 168.291 255.81 168.184 256.376 168.184C257.133 168.184 257.81 168.376 258.408 168.76C259.016 169.144 259.448 169.683 259.704 170.376L258.488 170.936C258.296 170.488 258.008 170.136 257.624 169.88C257.24 169.613 256.808 169.48 256.328 169.48C255.89 169.48 255.544 169.592 255.288 169.816C255.032 170.029 254.904 170.301 254.904 170.632C254.904 170.877 254.968 171.08 255.096 171.24C255.224 171.389 255.378 171.507 255.56 171.592C255.741 171.667 255.917 171.731 256.088 171.784L257.496 172.2C258.2 172.403 258.744 172.717 259.128 173.144C259.522 173.571 259.72 174.083 259.72 174.68C259.72 175.16 259.586 175.592 259.32 175.976C259.053 176.36 258.685 176.659 258.216 176.872C257.746 177.085 257.202 177.192 256.584 177.192ZM261.668 177V168.376H263.156V177H261.668ZM261.668 167V165.08H263.156V167H261.668ZM269.561 177.192C268.729 177.192 267.977 177 267.305 176.616C266.633 176.221 266.099 175.683 265.705 175C265.31 174.317 265.113 173.544 265.113 172.68C265.113 171.816 265.305 171.048 265.689 170.376C266.083 169.704 266.617 169.171 267.289 168.776C267.961 168.381 268.718 168.184 269.561 168.184C270.393 168.184 271.145 168.381 271.817 168.776C272.489 169.16 273.017 169.688 273.401 170.36C273.795 171.032 273.993 171.805 273.993 172.68C273.993 173.555 273.79 174.333 273.385 175.016C272.979 175.688 272.441 176.221 271.769 176.616C271.107 177 270.371 177.192 269.561 177.192ZM269.561 175.752C270.094 175.752 270.574 175.619 271.001 175.352C271.438 175.085 271.779 174.717 272.025 174.248C272.281 173.779 272.409 173.256 272.409 172.68C272.409 172.093 272.281 171.576 272.025 171.128C271.779 170.669 271.438 170.307 271.001 170.04C270.574 169.763 270.094 169.624 269.561 169.624C269.017 169.624 268.526 169.763 268.089 170.04C267.662 170.307 267.321 170.669 267.065 171.128C266.809 171.576 266.681 172.093 266.681 172.68C266.681 173.256 266.809 173.779 267.065 174.248C267.321 174.717 267.662 175.085 268.089 175.352C268.526 175.619 269.017 175.752 269.561 175.752ZM275.933 177V168.376H277.389V170.056L277.149 169.912C277.363 169.368 277.704 168.947 278.173 168.648C278.653 168.339 279.213 168.184 279.853 168.184C280.472 168.184 281.021 168.323 281.501 168.6C281.992 168.877 282.376 169.261 282.653 169.752C282.941 170.243 283.085 170.797 283.085 171.416V177H281.581V171.896C281.581 171.416 281.496 171.011 281.325 170.68C281.155 170.349 280.909 170.093 280.589 169.912C280.28 169.72 279.923 169.624 279.517 169.624C279.112 169.624 278.749 169.72 278.429 169.912C278.12 170.093 277.875 170.355 277.693 170.696C277.512 171.027 277.421 171.427 277.421 171.896V177H275.933ZM288.303 177.192C287.439 177.192 286.687 176.979 286.047 176.552C285.407 176.125 284.953 175.549 284.687 174.824L285.871 174.248C286.116 174.76 286.452 175.165 286.879 175.464C287.305 175.763 287.78 175.912 288.303 175.912C288.772 175.912 289.161 175.8 289.471 175.576C289.78 175.352 289.935 175.059 289.935 174.696C289.935 174.44 289.86 174.237 289.711 174.088C289.572 173.928 289.401 173.805 289.199 173.72C288.996 173.624 288.809 173.555 288.639 173.512L287.343 173.144C286.564 172.92 285.993 172.6 285.631 172.184C285.279 171.768 285.103 171.283 285.103 170.728C285.103 170.216 285.231 169.773 285.487 169.4C285.753 169.016 286.111 168.717 286.559 168.504C287.017 168.291 287.529 168.184 288.095 168.184C288.852 168.184 289.529 168.376 290.127 168.76C290.735 169.144 291.167 169.683 291.423 170.376L290.207 170.936C290.015 170.488 289.727 170.136 289.343 169.88C288.959 169.613 288.527 169.48 288.047 169.48C287.609 169.48 287.263 169.592 287.007 169.816C286.751 170.029 286.623 170.301 286.623 170.632C286.623 170.877 286.687 171.08 286.815 171.24C286.943 171.389 287.097 171.507 287.279 171.592C287.46 171.667 287.636 171.731 287.807 171.784L289.215 172.2C289.919 172.403 290.463 172.717 290.847 173.144C291.241 173.571 291.439 174.083 291.439 174.68C291.439 175.16 291.305 175.592 291.039 175.976C290.772 176.36 290.404 176.659 289.935 176.872C289.465 177.085 288.921 177.192 288.303 177.192Z" fill="#777E90"/>
<defs>
<filter id="filter0_bd_111_4617" x="0.5" y="0.096714" width="494" height="381" filterUnits="userSpaceOnUse" color-interpolation-filters="sRGB">
<feFlood flood-opacity="0" result="BackgroundImageFix"/>
<feGaussianBlur in="BackgroundImage" stdDeviation="4"/>
<feComposite in2="SourceAlpha" operator="in" result="effect1_backgroundBlur_111_4617"/>
<feColorMatrix in="SourceAlpha" type="matrix" values="0 0 0 0 0 0 0 0 0 0 0 0 0 0 0 0 0 0 127 0" result="hardAlpha"/>
<feOffset dx="-10" dy="48.5967"/>
<feGaussianBlur stdDeviation="70"/>
<feColorMatrix type="matrix" values="0 0 0 0 0.492847 0 0 0 0 0.482361 0 0 0 0 0.629167 0 0 0 0.2 0"/>
<feBlend mode="normal" in2="effect1_backgroundBlur_111_4617" result="effect2_dropShadow_111_4617"/>
<feBlend mode="normal" in="SourceGraphic" in2="effect2_dropShadow_111_4617" result="shape"/>
</filter>
<linearGradient id="paint0_linear_111_4617" x1="171.711" y1="97.9926" x2="164.407" y2="181.331" gradientUnits="userSpaceOnUse">
<stop stop-color="white" stop-opacity="0.56"/>
<stop offset="0.496505" stop-color="#F8F8FF" stop-opacity="0.71"/>
<stop offset="1" stop-color="white" stop-opacity="0.59"/>
</linearGradient>
<linearGradient id="paint1_linear_111_4617" x1="195.772" y1="188.41" x2="305.692" y2="67.3049" gradientUnits="userSpaceOnUse">
<stop stop-color="#EDEDED" stop-opacity="0.49"/>
<stop offset="1" stop-color="white" stop-opacity="0"/>
</linearGradient>
</defs>
</svg>
