<svg width="14" height="13" viewBox="0 0 14 13" fill="none" xmlns="http://www.w3.org/2000/svg">
<path d="M6.07031 1.08203C5.79688 1.35547 5.82422 1.76562 6.07031 2.03906L9.37891 5.15625H1.53125C1.14844 5.15625 0.875 5.45703 0.875 5.8125V6.6875C0.875 7.07031 1.14844 7.34375 1.53125 7.34375H9.37891L6.07031 10.4883C5.82422 10.7617 5.82422 11.1719 6.07031 11.4453L6.67188 12.0469C6.94531 12.293 7.35547 12.293 7.60156 12.0469L12.9336 6.71484C13.1797 6.46875 13.1797 6.05859 12.9336 5.78516L7.60156 0.480469C7.35547 0.234375 6.94531 0.234375 6.67188 0.480469L6.07031 1.08203Z" fill="white"/>
</svg>
